<?xml version="1.0" encoding="utf-8"?><!-- Uploaded to: SVG Repo, www.svgrepo.com, Generator: SVG Repo Mixer Tools -->
<svg fill="#000000" width="800px" height="800px" viewBox="0 0 24 24" id="music-2" data-name="Flat Color" xmlns="http://www.w3.org/2000/svg" class="icon flat-color"><path id="primary" d="M21.64,2.23A1,1,0,0,0,20.82,2l-11,2A1,1,0,0,0,9,5v9.68A4.87,4.87,0,0,0,6.5,14,4.27,4.27,0,0,0,2,18a4.27,4.27,0,0,0,4.5,4A4.27,4.27,0,0,0,11,18V9.83L20,8.2v4.48A4.87,4.87,0,0,0,17.5,12,4.27,4.27,0,0,0,13,16a4.27,4.27,0,0,0,4.5,4A4.27,4.27,0,0,0,22,16V3A1,1,0,0,0,21.64,2.23ZM11,7.8v-2L20,4.2v2Z" style="fill: rgb(0, 0, 0);"></path></svg>